<?xml version="1.0" encoding="UTF-8"?>
<!DOCTYPE svg PUBLIC "-//W3C//DTD SVG 1.1//EN" "http://www.w3.org/Graphics/SVG/1.1/DTD/svg11.dtd">
<svg version="1.1" xmlns="http://www.w3.org/2000/svg" xmlns:xlink="http://www.w3.org/1999/xlink" x="0" y="0" width="450" height="250" viewBox="0, 0, 450, 250">
  <defs>
    <radialGradient id="Gradient_1" gradientUnits="userSpaceOnUse" cx="165.417" cy="232.24" r="50.086" gradientTransform="matrix(0.766, -0.643, 0.643, 0.766, 0, 0)">
      <stop offset="0" stop-color="#FFFFFF"/>
      <stop offset="1" stop-color="#8CC400"/>
    </radialGradient>
  </defs>
  <g id="Layer_1">
    <path d="M0,0 L450,0 L450,250 L0,250 L0,0 z" fill="#FFFFFF"/>
    <g>
      <path d="M283.153,128.262 L265.345,97.843 L230.343,95.088 L253.595,68.959 L245.13,34.791 L277.308,49.061 L307.079,30.699 L303.713,65.648 L330.578,88.467 L296.32,95.797 z" fill="url(#Gradient_1)"/>
      <path d="M283.153,128.262 L265.345,97.843 L230.343,95.088 L253.595,68.959 L245.13,34.791 L277.308,49.061 L307.079,30.699 L303.713,65.648 L330.578,88.467 L296.32,95.797 z" fill-opacity="0" stroke="#000000" stroke-width="2"/>
    </g>
    <path d="M316.498,156.866 L270.33,78.328 L290.495,66.653 L328.172,124.496 L318.79,107.395 L329.234,98.493 L343.112,98.905 L353.114,91.594 L366.38,95.84 L371.687,101.339 L378.585,91.064 L390.791,95.84 L422.1,152.09 L426.876,188.175 L371.156,218.423 L302.741,174.325 L288.903,171.194 L287.311,156.335 L298.455,150.498 L316.498,156.866 z" fill="#D5D5D5"/>
    <g>
      <path d="M285.193,78.748 C289.353,76.454 294.854,78.116 297.479,82.461 L304.073,93.372 L325.187,128.314 L325.22,128.368 C326.528,130.532 329.275,131.371 331.352,130.226 C333.42,129.084 334.042,126.405 332.747,124.241 L332.735,124.222 C332.735,124.222 329.009,118.055 326.367,113.684 C323.746,109.347 324.988,103.962 329.146,101.669 C333.301,99.377 338.801,101.042 341.422,105.38 C344.261,110.077 348.581,117.227 348.581,117.227 L348.757,117.518 L348.794,117.512 C350.161,119.457 352.737,120.173 354.715,119.082 C356.792,117.936 357.799,115.96 356.485,113.785 C356.485,113.785 353.211,108.498 350.196,103.726 C347.485,98.703 351.853,96.248 354.216,94.945 C354.25,94.926 354.283,94.908 354.315,94.891 C356.652,93.601 361.644,93.15 363.558,96.356 C367.494,102.962 372.603,112.792 372.603,112.792 C373.913,114.96 375.41,116.481 377.487,115.336 C377.84,115.141 378.242,114.928 378.662,114.696 C380.718,113.562 383.182,111.999 382.096,110.201 C382.096,110.201 379.898,106.387 377.678,102.713 C375.891,99.755 374.835,96.289 379,93.992 C379.003,93.99 379.006,93.988 379.01,93.986 C383.356,91.602 387.41,93.36 390.562,98.576 L412.821,137.331 C413.242,138.027 413.547,138.748 413.76,139.481 C423.266,159.24 424.565,187.623 424.565,187.623 L404.144,198.887 C404.064,198.932 402.496,199.797 398.034,202.258 C393.218,204.914 385.038,209.427 371.694,216.788 C359.511,207.056 309.076,178.164 303.241,174.825 L296.429,172.77 C291.26,171.207 288.021,165.848 289.191,160.791 C289.774,158.263 291.35,156.292 293.423,155.149 C295.497,154.005 298.071,153.687 300.651,154.469 L312.856,158.155 L315.081,161.837 C316.394,164.01 319.136,164.836 321.217,163.688 C323.294,162.543 323.921,159.859 322.608,157.686 L302.61,127.368 C301.907,126.205 301.817,126.057 300.851,124.458 L280.974,91.565 C278.347,87.221 281.039,81.04 285.193,78.748 M282.142,73.699 C275.626,77.293 271.674,86.838 276.141,94.231 L296.021,127.129 L297.78,130.039 C297.822,130.11 297.868,130.181 297.914,130.25 L312.377,152.176 L301.914,149.016 C297.933,147.809 293.833,148.195 290.376,150.102 C286.92,152.008 284.52,155.206 283.62,159.109 C282.717,163.011 283.422,167.149 285.604,170.759 C287.785,174.369 291.184,177.021 295.173,178.227 L301.316,180.081 C326.926,194.747 359.606,214.16 368.345,221.142 C370.238,222.653 372.774,222.929 374.749,221.839 L401.089,207.31 L407.199,203.939 L427.619,192.676 C429.357,191.717 430.371,189.858 430.277,187.807 C430.222,186.608 428.826,158.363 419.075,137.759 C418.726,136.701 418.263,135.686 417.694,134.735 L395.465,96.033 C395.441,95.993 395.419,95.953 395.395,95.913 C390.532,87.866 382.907,85.126 375.967,88.934 C373.026,90.557 370.641,93.358 370.423,97.19 C369.741,95.991 369.062,94.817 368.409,93.723 C366.984,91.333 364.768,89.625 362,88.78 C357.811,87.5 353.597,88.552 351.261,89.84 L351.163,89.895 C348.163,91.549 344.072,94.65 343.612,99.405 C338.87,94.84 331.721,93.516 326.093,96.62 C321.856,98.957 319.462,103.263 319.29,107.895 L308.905,90.709 L302.311,79.797 C298.007,72.674 288.958,69.939 282.142,73.699 L282.142,73.699 z" fill="#000000"/>
      <path d="M285.193,78.748 C289.353,76.454 294.854,78.116 297.479,82.461 L304.073,93.372 L325.187,128.314 L325.22,128.368 C326.528,130.532 329.275,131.371 331.352,130.226 C333.42,129.084 334.042,126.405 332.747,124.241 L332.735,124.222 C332.735,124.222 329.009,118.055 326.367,113.684 C323.746,109.347 324.988,103.962 329.146,101.669 C333.301,99.377 338.801,101.042 341.422,105.38 C344.261,110.077 348.581,117.227 348.581,117.227 L348.757,117.518 L348.794,117.512 C350.161,119.457 352.737,120.173 354.715,119.082 C356.792,117.936 357.799,115.96 356.485,113.785 C356.485,113.785 353.211,108.498 350.196,103.726 C347.485,98.703 351.853,96.248 354.216,94.945 C354.25,94.926 354.283,94.908 354.315,94.891 C356.652,93.601 361.644,93.15 363.558,96.356 C367.494,102.962 372.603,112.792 372.603,112.792 C373.913,114.96 375.41,116.481 377.487,115.336 C377.84,115.141 378.242,114.928 378.662,114.696 C380.718,113.562 383.182,111.999 382.096,110.201 C382.096,110.201 379.898,106.387 377.678,102.713 C375.891,99.755 374.835,96.289 379,93.992 C379.003,93.99 379.006,93.988 379.01,93.986 C383.356,91.602 387.41,93.36 390.562,98.576 L412.821,137.331 C413.242,138.027 413.547,138.748 413.76,139.481 C423.266,159.24 424.565,187.623 424.565,187.623 L404.144,198.887 C404.064,198.932 402.496,199.797 398.034,202.258 C393.218,204.914 385.038,209.427 371.694,216.788 C359.511,207.056 309.076,178.164 303.241,174.825 L296.429,172.77 C291.26,171.207 288.021,165.848 289.191,160.791 C289.774,158.263 291.35,156.292 293.423,155.149 C295.497,154.005 298.071,153.687 300.651,154.469 L312.856,158.155 L315.081,161.837 C316.394,164.01 319.136,164.836 321.217,163.688 C323.294,162.543 323.921,159.859 322.608,157.686 L302.61,127.368 C301.907,126.205 301.817,126.057 300.851,124.458 L280.974,91.565 C278.347,87.221 281.039,81.04 285.193,78.748 M282.142,73.699 C275.626,77.293 271.674,86.838 276.141,94.231 L296.021,127.129 L297.78,130.039 C297.822,130.11 297.868,130.181 297.914,130.25 L312.377,152.176 L301.914,149.016 C297.933,147.809 293.833,148.195 290.376,150.102 C286.92,152.008 284.52,155.206 283.62,159.109 C282.717,163.011 283.422,167.149 285.604,170.759 C287.785,174.369 291.184,177.021 295.173,178.227 L301.316,180.081 C326.926,194.747 359.606,214.16 368.345,221.142 C370.238,222.653 372.774,222.929 374.749,221.839 L401.089,207.31 L407.199,203.939 L427.619,192.676 C429.357,191.717 430.371,189.858 430.277,187.807 C430.222,186.608 428.826,158.363 419.075,137.759 C418.726,136.701 418.263,135.686 417.694,134.735 L395.465,96.033 C395.441,95.993 395.419,95.953 395.395,95.913 C390.532,87.866 382.907,85.126 375.967,88.934 C373.026,90.557 370.641,93.358 370.423,97.19 C369.741,95.991 369.062,94.817 368.409,93.723 C366.984,91.333 364.768,89.625 362,88.78 C357.811,87.5 353.597,88.552 351.261,89.84 L351.163,89.895 C348.163,91.549 344.072,94.65 343.612,99.405 C338.87,94.84 331.721,93.516 326.093,96.62 C321.856,98.957 319.462,103.263 319.29,107.895 L308.905,90.709 L302.311,79.797 C298.007,72.674 288.958,69.939 282.142,73.699 L282.142,73.699 z" fill-opacity="0" stroke="#000000" stroke-width="2"/>
    </g>
    <text transform="matrix(1, 0, 0, 1, 135.415, 146.756)">
      <tspan x="-116.308" y="-39.5" font-family="DINCondensed-Bold" font-size="100" fill="#808080">Finger</tspan>
    </text>
    <text transform="matrix(1, 0, 0, 1, 181.269, 183.925)">
      <tspan x="-109.897" y="18.197" font-family="DINCondensed-Bold" font-size="100" fill="#6D6D6D">Beam</tspan>
    </text>
    <text transform="matrix(1, 0, 0, 1, 83.115, 236.492)">
      <tspan x="-64.008" y="2.764" font-family="DINCondensed-Bold" font-size="24" fill="#000000">@chumo 2015</tspan>
    </text>
  </g>
</svg>
